<?xml version="1.0" encoding="utf-8"?>
<!-- Generator: Adobe Illustrator 22.0.1, SVG Export Plug-In . SVG Version: 6.00 Build 0)  -->
<svg version="1.1" id="Layer_1" xmlns="http://www.w3.org/2000/svg" xmlns:xlink="http://www.w3.org/1999/xlink" x="0px" y="0px"
	 viewBox="0 0 19.4 19.4" style="enable-background:new 0 0 19.4 19.4;" xml:space="preserve">
<style type="text/css">
	.st0{fill:#01FF01;}
</style>
<g>
	<path class="st0" d="M5.8,9.8L5.8,9.8l1.9-2.9c0,0,0.1,0,0.1,0C8.1,7.6,8.4,8.4,8.3,9C8.2,9.2,8.1,9.5,7.9,9.8c0,0,0,0.1-0.1,0.1
		c0,0,0,0-0.1,0L5.8,9.8C5.8,9.9,5.8,9.9,5.8,9.8z"/>
	<path class="st0" d="M14.1,10.8C14.1,10.9,14.1,10.9,14.1,10.8c-0.2,0.1-0.7,0.3-0.9,0.6c-0.5,0.7-0.9,1.8-1.8,1.8H7.7
		c-1.3,0-2.4-1.1-2.4-2.4v0c0,0,0-0.1,0.1-0.1h2.1c0,0,0.1,0,0.1,0.1c0,0.1,0,0.3,0.1,0.4c0.1,0.2,0.4,0.4,0.7,0.4h1v-0.8h-1
		c-0.1,0-0.1-0.1-0.1-0.1c0,0,0,0,0-0.1c0.1-0.1,0.2-0.3,0.4-0.6c0.1-0.2,0.2-0.3,0.3-0.5c0,0,0-0.1,0-0.1c0-0.1,0-0.1,0.1-0.2
		c0,0,0-0.1,0-0.1C9,9,9,8.9,9,8.7c0-0.1,0-0.1,0-0.2c0-0.1,0-0.1,0-0.2c0-0.1,0-0.1,0-0.2c0-0.1,0-0.2-0.1-0.3l0,0
		c0-0.1,0-0.1-0.1-0.2C8.8,7.4,8.7,7.2,8.7,7c0-0.1-0.1-0.1-0.1-0.2c0-0.1-0.1-0.2-0.1-0.3c0,0,0-0.1-0.1-0.1c0,0,0-0.1-0.1-0.1
		c0,0,0-0.1,0-0.1L8.2,6c0,0,0-0.1,0-0.1L9,6.1h0c0,0,0,0,0,0l0.1,0l0.1,0l0,0V5.7c0-0.2,0.2-0.4,0.4-0.4c0.1,0,0.2,0,0.3,0.1
		c0.1,0.1,0.1,0.2,0.1,0.3v0.7l0.1,0c0,0,0,0,0,0c0,0,0,0,0.1,0.1c0,0,0.1,0.1,0.1,0.1c0.1,0.1,0.2,0.1,0.3,0.2c0,0,0.1,0,0.1,0.1
		C10.8,7,11,7.2,11.1,7.3c0,0,0.1,0.1,0.1,0.1c0,0,0.1,0.1,0.1,0.1c0,0.1,0.1,0.1,0.1,0.2c0,0,0,0.1,0.1,0.1C11.6,8,11.6,8,11.7,8.1
		c0,0,0,0.1,0.1,0.1c0.1,0.1,0.1,0.2,0.1,0.4c0,0,0,0.1,0,0.1v0c0,0,0,0.1,0,0.1c0,0.1,0,0.2,0,0.4c0,0.1,0,0.1,0,0.2
		c0,0,0,0.1-0.1,0.2c0,0.1-0.1,0.2-0.2,0.3c0,0,0,0.1-0.1,0.1c0,0-0.1,0.1-0.1,0.1c0,0-0.1,0.1-0.1,0.1c0,0-0.1,0.1-0.1,0.1
		c0,0.1-0.1,0.1-0.1,0.2c0,0-0.1,0.1-0.1,0.1c0,0-0.1,0.1-0.1,0.1c0,0-0.1,0.1-0.1,0.1l-0.1,0.1c0,0,0,0,0,0h-0.6v0.8h0.8
		c0.2,0,0.3-0.1,0.5-0.2c0,0,0.2-0.2,0.5-0.5c0,0,0,0,0,0l2.2-0.6c0,0,0.1,0,0.1,0.1V10.8L14.1,10.8z"/>
</g>
</svg>
